<svg width="12" height="12" viewBox="0 0 12 12" fill="none" xmlns="http://www.w3.org/2000/svg">
<path d="M5.04007 9.37975C5.93662 9.37975 6.77678 9.10909 7.47597 8.64673L9.94569 11.1221C10.1092 11.28 10.3178 11.3589 10.5434 11.3589C11.0114 11.3589 11.3554 10.9924 11.3554 10.53C11.3554 10.3158 11.282 10.1071 11.1242 9.94925L8.67136 7.48517C9.17884 6.76342 9.47768 5.88943 9.47768 4.94214C9.47768 2.50061 7.48161 0.50453 5.04007 0.50453C2.60418 0.50453 0.602464 2.50061 0.602464 4.94214C0.602464 7.38367 2.59854 9.37975 5.04007 9.37975ZM5.04007 8.19564C3.25263 8.19564 1.78658 6.72959 1.78658 4.94214C1.78658 3.15469 3.25263 1.68864 5.04007 1.68864C6.82752 1.68864 8.29357 3.15469 8.29357 4.94214C8.29357 6.72959 6.82752 8.19564 5.04007 8.19564Z" fill="#3C3C43" fill-opacity="0.6"/>
</svg>
